<svg xmlns="http://www.w3.org/2000/svg" data-name="Layer 1" viewBox="0 0 512 512"><path fill="#78777f" d="m256 369.46-29.11 29.11-68.35 68.35-15.39 15.4a15 15 0 0 1-21.21 0l-92.26-92.24a15 15 0 0 1 0-21.21L142.54 256l63.92 63.92zm64.69-162.22L369.45 256l112.87-112.86a15 15 0 0 0 0-21.21l-92.24-92.25a15 15 0 0 0-21.21 0l-74.17 74.16-38.7 38.7 13.3 13.3 27.38 27.39 2.34 2.33zm-129.39 0L142.54 256 29.68 143.14a15 15 0 0 1 0-21.21l92.25-92.25a15 15 0 0 1 21.21 0l74.16 74.16 38.7 38.7-13.3 13.3-28.91 28.91-.81.81zM256 369.46l29.11 29.11 68.34 68.34 15.41 15.4a15 15 0 0 0 21.21 0l92.24-92.24a15 15 0 0 0 0-21.21L369.45 256l-63.91 63.92z"/><path fill="#ddccbf" d="M297.45 40.43h-27.51V12.5a5 5 0 0 0-5-5h-17.88a5 5 0 0 0-5 5v27.93h-27.51a5 5 0 0 0-5 5v17.25a5 5 0 0 0 5 5h27.51v36.16h27.88V67.68h27.51a5 5 0 0 0 5-5V45.43a5 5 0 0 0-5-5Z"/><path fill="#9f7855" d="M300.46 103.84h-89.38a15 15 0 0 0-14.46 19L214 185.56h82l18.83-62.39a15 15 0 0 0-14.37-19.33Z"/><path fill="#654a36" d="M302.69 163.34h-94.84l-4-14.52a7.38 7.38 0 0 1 2.62-.48h99.12a7.62 7.62 0 0 1 1.6.17Z"/><path fill="#5b422b" d="M305.56 148.34h-15a7.62 7.62 0 0 1 1.6.17l-4.47 14.83h15l4.47-14.83a7.62 7.62 0 0 0-1.6-.17Z"/><path fill="#725537" d="M165.2 474.44h181.6a15.7 15.7 0 0 1 15.7 15.7v14.36h-213v-14.36a15.7 15.7 0 0 1 15.7-15.7Z"/><path fill="#9f7855" d="M322.3 398.58H189.7a15 15 0 0 0-13.95 9.49L157.61 454a15 15 0 0 0 13.95 20.51h168.89A15 15 0 0 0 354.4 454l-18.15-45.92a15 15 0 0 0-13.95-9.5Z"/><rect width="130" height="30" x="191" y="185.56" fill="#654a36" rx="10.9"/><path fill="#ddccbf" d="M311.99 398.57H200.01l15-183.05h81.98l15 183.05z"/><path fill="#070606" d="m380.06 256 118.17-118.17a7.49 7.49 0 0 0 0-10.6L384.78 13.77a7.5 7.5 0 0 0-10.61 0L291.6 96.34h-14.16V75.18h25a7.5 7.5 0 0 0 7.5-7.5V40.43a7.49 7.49 0 0 0-7.5-7.5h-25V7.5a7.5 7.5 0 0 0-7.5-7.5h-27.87a7.5 7.5 0 0 0-7.5 7.5v25.43h-25a7.5 7.5 0 0 0-7.5 7.5v27.25a7.5 7.5 0 0 0 7.5 7.5h25v21.16h-14.16l-82.57-82.57a7.5 7.5 0 0 0-10.61 0L13.77 127.23a7.49 7.49 0 0 0 0 10.6L131.94 256 13.77 374.17a7.5 7.5 0 0 0 0 10.61l113.46 113.46a7.52 7.52 0 0 0 10.61 0l4.16-4.17v10.43a7.5 7.5 0 0 0 7.5 7.5h213a7.5 7.5 0 0 0 7.5-7.5v-10.44l4.17 4.18a7.51 7.51 0 0 0 10.61 0l113.45-113.47a7.49 7.49 0 0 0 0-10.6ZM313 155.08 327.83 106a7.5 7.5 0 0 0-7.18-9.67h-7.84l66.66-66.66 102.85 102.86-112.86 112.86-41-40.95v-8a18.42 18.42 0 0 0-18.39-18.4h-4l5.27-17.46m-1.25 32.46a3.4 3.4 0 0 1 3.39 3.4v8.21a3.39 3.39 0 0 1-3.39 3.39h-12.3a7.14 7.14 0 0 0-.8 0H215a6.85 6.85 0 0 0-.79 0H201.9a3.4 3.4 0 0 1-3.4-3.39v-8.21a3.4 3.4 0 0 1 3.4-3.4Zm-94.48-29.72h79.23l-4.44 14.72h-70.7Zm88.22 227.73h-95.7l5.76-70.32v-.31l8-97.38h68.16Zm-102-168h5l-6.56 80.1L153.15 256l37.11-37.1a18.28 18.28 0 0 0 11.64 4.16Zm24.91 183h95.56a7.44 7.44 0 0 1 7 4.74l18.15 45.92a7.49 7.49 0 0 1-6 10.2H170.62a7.51 7.51 0 0 1-6-10.2l18.15-45.92a7.45 7.45 0 0 1 7-4.74Zm78.32-183h5a18.28 18.28 0 0 0 11.63-4.16L358.85 256l-47.15 47.16ZM217.05 60.18V47.93h25a7.5 7.5 0 0 0 7.5-7.5V15h12.87v25.43a7.5 7.5 0 0 0 7.5 7.5h25v12.25h-25a7.5 7.5 0 0 0-7.5 7.5v28.66h-12.85V67.68a7.5 7.5 0 0 0-7.5-7.5Zm93.5 51.16-11.16 37h-87.92l-10.26-37ZM29.68 132.53 132.54 29.68l66.66 66.66h-7.85a7.5 7.5 0 0 0-7.23 9.5l20 72.22h-2.22a18.42 18.42 0 0 0-18.4 18.4v8l-41 40.95Zm120.09 332.56-17.23 17.24L29.68 379.47l112.86-112.86 56.16 56.15-5.6 68.32h-3.4a22.36 22.36 0 0 0-20.92 14.23l-18.15 45.92a22.51 22.51 0 0 0-.86 13.86ZM355 497H157v-6.86a8.21 8.21 0 0 1 8.2-8.2h4.8c.51 0 1 .06 1.54.06h168.91c.51 0 1 0 1.54-.06h4.81a8.21 8.21 0 0 1 8.2 8.2Zm24.48-14.67-17.25-17.25a22.4 22.4 0 0 0-.86-13.85l-18.14-45.92a22.38 22.38 0 0 0-20.93-14.23h-3.4l-5.6-68.31 56.16-56.16 112.86 112.86Z"/></svg>