<svg xmlns="http://www.w3.org/2000/svg" viewBox="0 0 48 48"><g data-name="Singing / Karaoke"><path fill="#374f68" d="M21,42c0,1.33-.13.47.81,4.24.23.95,1,.76,3.41.76,1,0,1-.78,1.78-4V42Z"/><path fill="#dad7e5" d="M32,15A8,8,0,1,1,21.47,7.41,8,8,0,0,1,32,15Z"/><path fill="#edebf2" d="M32,15a8,8,0,0,1-3.47,6.59c-8.79,3-14.6-9-7.06-14.18A8,8,0,0,1,32,15Z"/><path fill="#374f68" d="M30.87,19.1c-.06.47-2.61,21.76-2.66,22.14a2,2,0,0,1-2,1.76H21.77a2,2,0,0,1-2-1.76L17.13,19.1Z"/><path fill="#425b72" d="M30.87,19.1,28.24,41H23.77a2,2,0,0,1-2-1.76L19.37,19.1Z"/><path fill="#82bcf4" d="M11,8V1a1,1,0,0,1,1-1c2.38,0,2.68,2,4,2a1,1,0,0,1,0,2c-3.67,0-3-5.2-3,4A1,1,0,0,1,11,8Z"/><path fill="#6fabe6" d="M11.59,11.59c-1.36,1.38-3.58,2-4.88.7-1.06-1.07-1-3.18.7-4.88C11.1,3.69,15.28,7.9,11.59,11.59Z"/><path fill="#82bcf4" d="M12.62 7.14c-1.34 2.91-5.07 3.79-6.24 1.72C7.68 6 11.42 5 12.62 7.14zM7 35V28a1 1 0 0 1 1-1c2.38 0 2.68 2 4 2a1 1 0 0 1 0 2c-3.67 0-3-5.2-3 4A1 1 0 0 1 7 35z"/><path fill="#6fabe6" d="M7.59,38.59c-1.36,1.38-3.58,2-4.88.7-1.06-1.07-1-3.18.7-4.88C7.1,30.69,11.28,34.9,7.59,38.59Z"/><path fill="#82bcf4" d="M8.62 34.14c-1.34 2.91-5.07 3.79-6.24 1.72C3.68 33 7.42 32 8.62 34.14zM40 22V15a1 1 0 0 1 1-1c2.38 0 2.68 2 4 2a1 1 0 0 1 0 2c-3.67 0-3-5.2-3 4A1 1 0 0 1 40 22z"/><path fill="#6fabe6" d="M40.59,25.59c-1.36,1.38-3.58,2-4.88.7-1.06-1.07-1-3.18.7-4.88C40.1,17.69,44.28,21.9,40.59,25.59Z"/><path fill="#82bcf4" d="M41.62,21.14c-1.34,2.91-5.07,3.79-6.24,1.72C36.68,20,40.42,19,41.62,21.14Z"/><path fill="#374f68" d="M31.78,16.86c-1.92,8.11-13.6,8.19-15.56,0A32,32,0,0,0,31.78,16.86Z"/><path fill="#425b72" d="M31.78 16.86a8 8 0 0 1-3.23 4.71 8 8 0 0 1-9.79-4.17A32.43 32.43 0 0 0 31.78 16.86zM27 43l-.75 3a4 4 0 0 1-4-3z"/><rect width="4" height="5" x="22" y="28" fill="#fc6" rx="1"/><path fill="#ffde76" d="M26,29v3a3,3,0,0,1-3-3V28h2A1,1,0,0,1,26,29Z"/></g></svg>